SplineFontDB: 3.0
FontName: BulmerStM
FullName: Sorts Mill Bulmer
FamilyName: Sorts Mill Bulmer
Weight: Regular
Copyright: Created by trashman with FontForge 2.0 (http://fontforge.sf.net)
UComments: "2010-10-5: Created." 
Version: 001.000
ItalicAngle: 0
UnderlinePosition: -100
UnderlineWidth: 50
Ascent: 680
Descent: 320
LayerCount: 3
Layer: 0 0 "Back"  1
Layer: 1 0 "Fore"  0
Layer: 2 0 "backup"  0
NeedsXUIDChange: 1
XUID: [1021 658 797806517 5336769]
OS2Version: 0
OS2_WeightWidthSlopeOnly: 0
OS2_UseTypoMetrics: 1
CreationTime: 1286303174
ModificationTime: 1286338145
OS2TypoAscent: 0
OS2TypoAOffset: 1
OS2TypoDescent: 0
OS2TypoDOffset: 1
OS2TypoLinegap: 0
OS2WinAscent: 0
OS2WinAOffset: 1
OS2WinDescent: 0
OS2WinDOffset: 1
HheadAscent: 0
HheadAOffset: 1
HheadDescent: 0
HheadDOffset: 1
OS2Vendor: 'PfEd'
MarkAttachClasses: 1
DEI: 91125
Encoding: UnicodeBmp
UnicodeInterp: none
NameList: Adobe Glyph List
DisplaySize: -48
AntiAlias: 1
FitToEm: 1
WinInfo: 44 11 5
BeginChars: 65536 63

StartChar: a
Encoding: 97 97 0
Width: 413
VWidth: 0
Flags: HW
HStem: -18 55<107.5 196.89 356.282 388.396> -17 42<298.866 386.582> 206 19<210.449 250> 366 21<139.541 220.436>
VStem: 40 85<53.5451 133.755 285.788 353.768> 250 82<53.8789 206 225 343.153>
LayerCount: 3
Fore
SplineSet
43 318 m 0xbc
 43 366 123 387 192 387 c 0
 266 387 332 350 332 290 c 2
 332 61 l 2
 332 45 332 25 356 25 c 0
 362 25 369 28 373 32 c 0
 378 37 380 42 385 42 c 0
 394 42 398 35 398 26 c 0
 398 0 364 -17 335 -17 c 0x7c
 265 -17 252 49 252 49 c 1
 252 49 233 29 208 11 c 0
 187 -4 162 -18 135 -18 c 0
 80 -18 40 21 40 70 c 0
 40 128 91 178 151 202 c 0
 186 216 218 221 250 225 c 1
 250 300 l 2
 250 347 219 366 178 366 c 0
 164 366 149 365 139 357 c 0
 125 346 120 331 120 309 c 0
 120 292 96 279 81 279 c 0
 58 279 43 295 43 318 c 0xbc
250 206 m 1
 250 206 125 191 125 110 c 0
 125 74 144 37 189 37 c 0xbc
 204 37 250 58 250 88 c 2
 250 206 l 1
EndSplineSet
EndChar

StartChar: b
Encoding: 98 98 1
Width: 492
VWidth: 0
Flags: HW
HStem: -16 31<197.673 298.548> -4 29<14.0116 66.8303> 367 24<212.243 301.42> 621 30<17.0403 51>
VStem: 72 78<26.7188 553.09> 366 92<99.723 280.59>
LayerCount: 3
Fore
SplineSet
146 314 m 1
 165 352 202 392 276 392 c 0
 368 392 458 305 458 190 c 0
 458 88 378 -16 261 -16 c 0
 174 -16 146 53 146 53 c 1
 146 15 l 2xbc
 146 -4 145 -10 142 -10 c 0
 139 -10 107 -4 82 -4 c 2
 42 -4 l 2
 30 -4 14 -4 14 10 c 0
 14 21 18 23 33 25 c 2
 53 27 l 2
 70 29 72 56 72 79 c 2
 72 495 l 2
 72 519 72 547 71 587 c 0
 71 600 69 614 51 618 c 2
 36 621 l 2
 31 622 17 624 17 635 c 0
 17 646 23 650 36 651 c 0
 67 654 134 670 140 670 c 0
 154 670 154 663 154 654 c 0
 154 557 146 314 146 314 c 1
366 188 m 0
 366 278 337 366 257 366 c 0
 227 366 202 353 183 333 c 0
 154 303 150 255 150 198 c 2
 150 187 l 2
 150 129 151 74 180 41 c 0
 192 27 219 15 245 15 c 0
 343 15 366 124 366 188 c 0
EndSplineSet
EndChar

StartChar: c
Encoding: 99 99 2
Width: 443
VWidth: 0
Flags: W
HStem: -21 46<186.752 320.911> 368 23<207.298 302.145>
VStem: 32 96<95.3365 262.635> 321 72<265.888 352.538>
LayerCount: 3
Fore
SplineSet
249 391 m 0
 308 391 393 368 393 304 c 0
 393 277 377 262 352 262 c 0
 338 262 321 275 321 291 c 0
 321 312 323 311 323 326 c 0
 323 335 312 368 256 368 c 0
 162 368 128 272 128 186 c 0
 128 115 168 25 248 25 c 0
 298 25 329 39 350 68 c 0
 357 77 361 96 376 96 c 0
 385 96 389 89 389 81 c 0
 389 66 381 51 370 38 c 0
 341 2 283 -21 227 -21 c 0
 114 -21 32 69 32 178 c 0
 32 289 141 391 249 391 c 0
EndSplineSet
EndChar

StartChar: d
Encoding: 100 100 3
Width: 500
VWidth: 0
Flags: W
HStem: -14 37<177.465 279.778> 4 28<429.592 479.993> 365 26<188.462 284.427> 630 32<275.082 337.617>
VStem: 26 86<90.8497 283.025> 342 75<58.9574 329.226 336 630.877> 342 75<36.3959 57 58.9574 186.715 189 329.226 336 595.493>
LayerCount: 3
Fore
SplineSet
480 18 m 0x7c
 480 9 479 4 470 4 c 0x7c
 416 4 372 -9 359 -9 c 0
 351 -9 346 -6 346 7 c 2
 346 57 l 1
 346 57 284 -14 217 -14 c 0xbc
 73 -14 26 85 26 190 c 0
 26 292 99 391 222 391 c 0
 301 391 342 336 342 336 c 1
 342 487 l 2
 342 523 340 565 339 597 c 0
 339 612 339 631 318 631 c 2
 294 630 l 2
 282 630 275 635 275 644 c 0
 275 651 277 662 288 662 c 0
 340 664 401 678 413 678 c 0
 426 678 424 670 424 660 c 0
 424 654 418 568 418 520 c 0
 418 458 417 560 417 226 c 2
 417 189 l 2
 417 140 419 107 422 72 c 0
 424 50 432 33 454 32 c 0
 471 31 480 33 480 18 c 0x7c
112 185 m 0
 112 107 153 23 236 23 c 0xbc
 280 23 318 44 331 78 c 0
 340 103 342 135 342 171 c 2
 342 262 l 2
 342 323 302 365 239 365 c 0
 151 365 112 273 112 185 c 0
EndSplineSet
EndChar

StartChar: e
Encoding: 101 101 4
Width: 431
VWidth: 0
Flags: HW
LayerCount: 3
Fore
SplineSet
33 171 m 0
 33 276 108 391 220 391 c 0
 247 391 272 389 294 378 c 0
 339 355 378 306 378 250 c 0
 378 234 360 229 343 229 c 0
 329 229 124 236 124 236 c 1
 124 218 l 2
 124 91 184 29 260 29 c 0
 304 29 338 59 350 92 c 0
 354 101 360 111 370 111 c 0
 378 111 385 104 385 92 c 0
 385 58 335 -23 221 -23 c 0
 105 -23 33 60 33 171 c 0
224 362 m 0
 148 362 130 260 130 260 c 1
 130 260 143 260 250 263 c 0
 276 264 298 265 298 303 c 0
 298 333 262 362 224 362 c 0
EndSplineSet
EndChar

StartChar: f
Encoding: 102 102 5
Width: 278
VWidth: 0
Flags: HW
HStem: -2 34<24.0141 73.1042 159.365 221.985> 340 34<28.0075 76 157 228.85> 643 21<207.218 263.041>
VStem: 76 81<32 340.641 373.453 573.726> 264 86<560.528 642.809>
LayerCount: 3
Fore
SplineSet
264 627 m 0
 264 641 256 643 241 643 c 0
 166 643 157 530 157 488 c 2
 157 384 l 2
 157 373 157 373 168 373 c 2
 215 374 l 2
 226 374 229 369 229 358 c 2
 229 354 l 2
 229 345 225 340 213 340 c 2
 168 341 l 2
 157 341 157 340 157 328 c 2
 157 166 l 6
 157 152 157 118 158 85 c 4
 159 56 156 32 173 32 c 6
 205 32 l 6
 217 32 222 30 222 16 c 4
 222 1 217 -2 208 -2 c 4
 182 -2 152 0 124 0 c 4
 95 0 55 -2 39 -2 c 4
 26 -2 24 6 24 16 c 4
 24 28 27 32 41 32 c 6
 61 32 l 6
 76 32 74 62 75 85 c 4
 76 108 76 138 76 166 c 6
 76 328 l 2
 76 341 75 341 62 341 c 2
 40 340 l 2
 29 340 28 344 28 352 c 2
 28 361 l 2
 28 368 29 374 40 374 c 2
 66 373 l 2
 76 373 76 373 76 384 c 2
 76 454 l 2
 76 517 85 578 133 622 c 0
 164 650 193 664 252 664 c 0
 297 664 350 653 350 597 c 0
 350 567 322 554 307 554 c 0
 282 554 262 568 262 598 c 0
 262 610 264 620 264 627 c 0
EndSplineSet
EndChar

StartChar: g
Encoding: 103 103 6
Width: 454
VWidth: 0
Flags: HW
HStem: -276 34<142.442 303.769> -66 22<127.224 136.996> -52 79<160.556 329.103> 108 19<152.433 215.37> 369 19<159.515 218.09 311.801 378>
VStem: 29 65<-204.706 -85.5868> 32 82<172.425 320.274> 81 44<16.5 87.2421> 256 77<168.606 312.895> 366 58<-190.844 -83.5881>
LayerCount: 3
Fore
SplineSet
186 388 m 0xdac0
 237 388 280 354 280 354 c 1
 280 354 318 394 360 394 c 0
 396 394 422 379 422 344 c 0
 422 328 415 310 395 310 c 0
 353 310 362 367 332 367 c 0
 311 367 290 343 290 343 c 1
 290 343 333 299 333 240 c 0
 333 171 281 108 182 108 c 0
 166 108 125 104 125 68 c 0xd9c0
 125 33 162 28 194 28 c 2
 279 28 l 2
 372 28 422 -14 422 -106 c 0
 422 -243 295 -276 220 -276 c 0
 123 -276 29 -230 29 -139 c 0xbcc0
 29 -66 86 -49 120 -45 c 0
 132 -44 142 -43 142 -42 c 0
 142 -41 130 -38 120 -33 c 0
 98 -22 81 -1 81 34 c 0xd9c0
 81 88 136 113 136 113 c 1
 136 113 32 134 32 250 c 0
 32 330 106 388 186 388 c 0xdac0
94 -139 m 0xdcc0
 94 -200 130 -242 224 -242 c 0
 310 -242 366 -197 366 -125 c 0
 366 -74 306 -58 248 -58 c 0
 216 -58 167 -50 167 -50 c 1xbcc0
 167 -50 172 -67 160 -67 c 0
 113 -67 94 -108 94 -139 c 0xdcc0
188 369 m 0
 136 369 114 300 114 242 c 0x9ac0
 114 191 129 127 182 127 c 0
 240 127 256 183 256 234 c 0
 256 290 245 369 188 369 c 0
EndSplineSet
EndChar

StartChar: h
Encoding: 104 104 7
Width: 528
VWidth: 0
Flags: W
HStem: -2 34<29.0205 85.5807 172.828 226.968 295.043 351.104 436.688 496.965> 360 28<236.939 325.559> 630 25<36.0268 94.886>
VStem: 88 83<32 318.234 322 334.515> 98 85<410.426 629.99> 354 81<32 339.435>
LayerCount: 3
Fore
SplineSet
278 360 m 0xf4
 210 360 171 298 171 270 c 6
 171 69 l 6
 171 48 175 32 189 32 c 6
 204 32 l 6
 216 32 227 30 227 16 c 4
 227 1 217 -2 208 -2 c 4
 182 -2 160 0 132 0 c 4
 103 0 61 -2 45 -2 c 4
 32 -2 29 6 29 16 c 4
 29 28 35 32 49 32 c 6
 73 32 l 6
 88 32 87 62 88 85 c 4xf4
 92 240 98 500 98 587 c 6
 98 602 l 6
 98 616 97 630 84 630 c 4
 78 630 68 628 52 626 c 4
 40 625 36 632 36 641 c 4
 36 648 37 654 48 655 c 4
 96 660 157 673 168 673 c 4
 181 673 183 666 183 656 c 6xec
 183 656 175 580 171 322 c 5
 171 322 211 388 308 388 c 0
 384 388 436 351 436 289 c 2
 435 74 l 2
 435 46 438 32 452 32 c 2
 473 32 l 2
 485 32 497 30 497 16 c 0
 497 1 490 -2 481 -2 c 0
 455 -2 423 0 395 0 c 0
 366 0 334 -2 318 -2 c 0
 301 -2 295 3 295 16 c 0
 295 31 310 32 322 32 c 2
 339 32 l 2
 354 32 352 62 353 85 c 0
 354 108 354 138 354 166 c 2
 354 246 l 2
 354 312 346 360 278 360 c 0xf4
EndSplineSet
EndChar

StartChar: i
Encoding: 105 105 8
Width: 272
VWidth: 0
Flags: HWO
LayerCount: 3
Fore
SplineSet
90 620 m 0
 90 650 114 674 144 674 c 0
 174 674 198 650 198 620 c 0
 198 590 174 566 144 566 c 0
 114 566 90 590 90 620 c 0
103 328 m 0
 103 340 102 352 91 352 c 0
 85 352 77 351 61 351 c 0
 49 351 45 357 45 366 c 0
 45 373 46 381 57 381 c 0
 115 381 165 388 176 388 c 0
 188 388 190 378 190 368 c 0
 190 361 186 187 186 85 c 0
 186 61 187 32 205 32 c 2
 226 32 l 2
 238 32 249 30 249 16 c 0
 249 1 239 -2 230 -2 c 0
 204 -2 175 0 147 0 c 0
 118 0 73 -2 57 -2 c 0
 44 -2 41 6 41 16 c 0
 41 28 47 32 61 32 c 2
 87 32 l 2
 102 32 101 62 102 85 c 0
 103 106 104 132 104 159 c 2
 104 250 l 2
 104 278 104 304 103 328 c 0
EndSplineSet
EndChar

StartChar: j
Encoding: 106 106 9
Width: 236
VWidth: 0
Flags: HW
LayerCount: 3
Fore
SplineSet
64 230 m 4
 64 261 89 286 120 286 c 4
 151 286 176 261 176 230 c 4
 176 199 151 174 120 174 c 4
 89 174 64 199 64 230 c 4
EndSplineSet
EndChar

StartChar: k
Encoding: 107 107 10
Width: 236
VWidth: 0
Flags: HW
LayerCount: 3
Fore
SplineSet
64 230 m 4
 64 261 89 286 120 286 c 4
 151 286 176 261 176 230 c 4
 176 199 151 174 120 174 c 4
 89 174 64 199 64 230 c 4
EndSplineSet
EndChar

StartChar: l
Encoding: 108 108 11
Width: 236
VWidth: 0
Flags: HW
LayerCount: 3
Fore
SplineSet
64 230 m 4
 64 261 89 286 120 286 c 4
 151 286 176 261 176 230 c 4
 176 199 151 174 120 174 c 4
 89 174 64 199 64 230 c 4
EndSplineSet
EndChar

StartChar: m
Encoding: 109 109 12
Width: 236
VWidth: 0
Flags: HW
LayerCount: 3
Fore
SplineSet
64 230 m 4
 64 261 89 286 120 286 c 4
 151 286 176 261 176 230 c 4
 176 199 151 174 120 174 c 4
 89 174 64 199 64 230 c 4
EndSplineSet
EndChar

StartChar: n
Encoding: 110 110 13
Width: 236
VWidth: 0
Flags: HW
LayerCount: 3
Fore
SplineSet
64 230 m 4
 64 261 89 286 120 286 c 4
 151 286 176 261 176 230 c 4
 176 199 151 174 120 174 c 4
 89 174 64 199 64 230 c 4
EndSplineSet
EndChar

StartChar: o
Encoding: 111 111 14
Width: 236
VWidth: 0
Flags: HW
LayerCount: 3
Fore
SplineSet
64 230 m 4
 64 261 89 286 120 286 c 4
 151 286 176 261 176 230 c 4
 176 199 151 174 120 174 c 4
 89 174 64 199 64 230 c 4
EndSplineSet
EndChar

StartChar: p
Encoding: 112 112 15
Width: 236
VWidth: 0
Flags: HW
LayerCount: 3
Fore
SplineSet
64 230 m 4
 64 261 89 286 120 286 c 4
 151 286 176 261 176 230 c 4
 176 199 151 174 120 174 c 4
 89 174 64 199 64 230 c 4
EndSplineSet
EndChar

StartChar: q
Encoding: 113 113 16
Width: 236
VWidth: 0
Flags: HW
LayerCount: 3
Fore
SplineSet
64 230 m 4
 64 261 89 286 120 286 c 4
 151 286 176 261 176 230 c 4
 176 199 151 174 120 174 c 4
 89 174 64 199 64 230 c 4
EndSplineSet
EndChar

StartChar: r
Encoding: 114 114 17
Width: 236
VWidth: 0
Flags: HW
LayerCount: 3
Fore
SplineSet
64 230 m 4
 64 261 89 286 120 286 c 4
 151 286 176 261 176 230 c 4
 176 199 151 174 120 174 c 4
 89 174 64 199 64 230 c 4
EndSplineSet
EndChar

StartChar: s
Encoding: 115 115 18
Width: 236
VWidth: 0
Flags: HW
LayerCount: 3
Fore
SplineSet
64 230 m 4
 64 261 89 286 120 286 c 4
 151 286 176 261 176 230 c 4
 176 199 151 174 120 174 c 4
 89 174 64 199 64 230 c 4
EndSplineSet
EndChar

StartChar: t
Encoding: 116 116 19
Width: 236
VWidth: 0
Flags: HW
LayerCount: 3
Fore
SplineSet
64 230 m 4
 64 261 89 286 120 286 c 4
 151 286 176 261 176 230 c 4
 176 199 151 174 120 174 c 4
 89 174 64 199 64 230 c 4
EndSplineSet
EndChar

StartChar: u
Encoding: 117 117 20
Width: 236
VWidth: 0
Flags: HW
LayerCount: 3
Fore
SplineSet
64 230 m 4
 64 261 89 286 120 286 c 4
 151 286 176 261 176 230 c 4
 176 199 151 174 120 174 c 4
 89 174 64 199 64 230 c 4
EndSplineSet
EndChar

StartChar: v
Encoding: 118 118 21
Width: 236
VWidth: 0
Flags: HW
LayerCount: 3
Fore
SplineSet
64 230 m 4
 64 261 89 286 120 286 c 4
 151 286 176 261 176 230 c 4
 176 199 151 174 120 174 c 4
 89 174 64 199 64 230 c 4
EndSplineSet
EndChar

StartChar: w
Encoding: 119 119 22
Width: 236
VWidth: 0
Flags: HW
LayerCount: 3
Fore
SplineSet
64 230 m 4
 64 261 89 286 120 286 c 4
 151 286 176 261 176 230 c 4
 176 199 151 174 120 174 c 4
 89 174 64 199 64 230 c 4
EndSplineSet
EndChar

StartChar: x
Encoding: 120 120 23
Width: 236
VWidth: 0
Flags: HW
LayerCount: 3
Fore
SplineSet
64 230 m 4
 64 261 89 286 120 286 c 4
 151 286 176 261 176 230 c 4
 176 199 151 174 120 174 c 4
 89 174 64 199 64 230 c 4
EndSplineSet
EndChar

StartChar: y
Encoding: 121 121 24
Width: 236
VWidth: 0
Flags: HW
LayerCount: 3
Fore
SplineSet
64 230 m 4
 64 261 89 286 120 286 c 4
 151 286 176 261 176 230 c 4
 176 199 151 174 120 174 c 4
 89 174 64 199 64 230 c 4
EndSplineSet
EndChar

StartChar: z
Encoding: 122 122 25
Width: 236
VWidth: 0
Flags: HW
LayerCount: 3
Fore
SplineSet
64 230 m 4
 64 261 89 286 120 286 c 4
 151 286 176 261 176 230 c 4
 176 199 151 174 120 174 c 4
 89 174 64 199 64 230 c 4
EndSplineSet
EndChar

StartChar: zero
Encoding: 48 48 52
Width: 236
VWidth: 0
Flags: HW
LayerCount: 3
Fore
SplineSet
64 230 m 0
 64 261 89 286 120 286 c 0
 151 286 176 261 176 230 c 0
 176 199 151 174 120 174 c 0
 89 174 64 199 64 230 c 0
EndSplineSet
EndChar

StartChar: one
Encoding: 49 49 53
Width: 236
VWidth: 0
Flags: HW
LayerCount: 3
Fore
SplineSet
64 230 m 0
 64 261 89 286 120 286 c 0
 151 286 176 261 176 230 c 0
 176 199 151 174 120 174 c 0
 89 174 64 199 64 230 c 0
EndSplineSet
EndChar

StartChar: two
Encoding: 50 50 54
Width: 236
VWidth: 0
Flags: HW
LayerCount: 3
Fore
SplineSet
64 230 m 0
 64 261 89 286 120 286 c 0
 151 286 176 261 176 230 c 0
 176 199 151 174 120 174 c 0
 89 174 64 199 64 230 c 0
EndSplineSet
EndChar

StartChar: three
Encoding: 51 51 55
Width: 236
VWidth: 0
Flags: HW
LayerCount: 3
Fore
SplineSet
64 230 m 0
 64 261 89 286 120 286 c 0
 151 286 176 261 176 230 c 0
 176 199 151 174 120 174 c 0
 89 174 64 199 64 230 c 0
EndSplineSet
EndChar

StartChar: four
Encoding: 52 52 56
Width: 236
VWidth: 0
Flags: HW
LayerCount: 3
Fore
SplineSet
64 230 m 0
 64 261 89 286 120 286 c 0
 151 286 176 261 176 230 c 0
 176 199 151 174 120 174 c 0
 89 174 64 199 64 230 c 0
EndSplineSet
EndChar

StartChar: five
Encoding: 53 53 57
Width: 236
VWidth: 0
Flags: HW
LayerCount: 3
Fore
SplineSet
64 230 m 0
 64 261 89 286 120 286 c 0
 151 286 176 261 176 230 c 0
 176 199 151 174 120 174 c 0
 89 174 64 199 64 230 c 0
EndSplineSet
EndChar

StartChar: six
Encoding: 54 54 58
Width: 236
VWidth: 0
Flags: HW
LayerCount: 3
Fore
SplineSet
64 230 m 0
 64 261 89 286 120 286 c 0
 151 286 176 261 176 230 c 0
 176 199 151 174 120 174 c 0
 89 174 64 199 64 230 c 0
EndSplineSet
EndChar

StartChar: seven
Encoding: 55 55 59
Width: 236
VWidth: 0
Flags: HW
LayerCount: 3
Fore
SplineSet
64 230 m 0
 64 261 89 286 120 286 c 0
 151 286 176 261 176 230 c 0
 176 199 151 174 120 174 c 0
 89 174 64 199 64 230 c 0
EndSplineSet
EndChar

StartChar: eight
Encoding: 56 56 60
Width: 236
VWidth: 0
Flags: HW
LayerCount: 3
Fore
SplineSet
64 230 m 0
 64 261 89 286 120 286 c 0
 151 286 176 261 176 230 c 0
 176 199 151 174 120 174 c 0
 89 174 64 199 64 230 c 0
EndSplineSet
EndChar

StartChar: nine
Encoding: 57 57 61
Width: 236
VWidth: 0
Flags: HW
LayerCount: 3
Fore
SplineSet
64 230 m 0
 64 261 89 286 120 286 c 0
 151 286 176 261 176 230 c 0
 176 199 151 174 120 174 c 0
 89 174 64 199 64 230 c 0
EndSplineSet
EndChar

